<svg width="16" height="16" viewBox="0 0 16 16" fill="none" xmlns="http://www.w3.org/2000/svg">
<path d="M15.2727 5.81824H10.1818H8H5.81819H0.727281C0.325625 5.81824 0 6.1438 0 6.54552V9.45461C0 9.85627 0.325625 10.1819 0.727281 10.1819H5.81819L8 10.1819L10.0614 10.1819L15.2727 10.1819C15.6744 10.1819 16 9.85624 16 9.45458V6.54549C16 6.1438 15.6744 5.81824 15.2727 5.81824Z" fill="#E27676"/>
<path d="M5.81819 5.81817H0.727281C0.325625 5.81817 0 6.14373 0 6.54545V9.45455C0 9.8562 0.325625 10.1818 0.727281 10.1818H5.81819H7C7.5 10.1818 7.36508 10.1818 7.76674 10.1818C8.1684 10.1818 8 10.1818 8 10.1818V5.81819L5.81819 5.81817Z" fill="#E24D4D"/>
</svg>
